<svg id="레이어_1" data-name="레이어 1" xmlns="http://www.w3.org/2000/svg" viewBox="0 0 70 70">
  <g>
    <path id="패스_907" data-name="패스 907" d="M35,5.72A29.28,29.28,0,1,1,5.72,35h0A29.28,29.28,0,0,1,35,5.72M35,0A35,35,0,1,0,70,35h0A35,35,0,0,0,35,0Z"/>
    <g id="그룹_1552" data-name="그룹 1552">
      <path id="패스_907-2" data-name="패스 907-2" d="M35,5.72A29.28,29.28,0,1,1,5.72,35h0A29.28,29.28,0,0,1,35,5.72M35,0A35,35,0,1,0,70,35h0A35,35,0,0,0,35,0Z"/>
      <g id="R" style="isolation: isolate">
        <g style="isolation: isolate">
          <path d="M20.77,18.94H39.06c10.26,0,13.47,5.41,13.47,9.82a8.91,8.91,0,0,1-5.3,8.47l8.66,11.9H43.61L36.74,39H31.52V49.13H20.77ZM31.52,31.85H36c3,0,6,.19,6-2.76,0-2.61-2.42-2.8-5.34-2.8H31.52Z"/>
        </g>
      </g>
    </g>
  </g>
</svg>
