<svg id="레이어_1" data-name="레이어 1" xmlns="http://www.w3.org/2000/svg" viewBox="0 0 70 70">
  <g>
    <path id="패스_907" data-name="패스 907" d="M35,5.72A29.28,29.28,0,1,1,5.73,35h0A29.27,29.27,0,0,1,35,5.72M35,0A35,35,0,1,0,70,35h0A35,35,0,0,0,35,0Z"/>
    <g id="그룹_1552" data-name="그룹 1552">
      <path id="패스_907-2" data-name="패스 907-2" d="M35,5.72A29.28,29.28,0,1,1,5.73,35h0A29.27,29.27,0,0,1,35,5.72M35,0A35,35,0,1,0,70,35h0A35,35,0,0,0,35,0Z"/>
      <g id="E" style="isolation: isolate">
        <g style="isolation: isolate">
          <path d="M20.28,18.94H49.19v7.73H31v3.77H48.08v7.2H31v3.73h18.7v7.76H20.28Z"/>
        </g>
      </g>
    </g>
    <path id="패스_907-2-2" data-name="패스 907" d="M35,5.72A29.28,29.28,0,1,1,5.73,35h0A29.27,29.27,0,0,1,35,5.72M35,0A35,35,0,1,0,70,35h0A35,35,0,0,0,35,0Z"/>
  </g>
</svg>
