<svg id="레이어_1" data-name="레이어 1" xmlns="http://www.w3.org/2000/svg" viewBox="0 0 70 70">
  <g>
    <path id="패스_907-2" data-name="패스 907-2" d="M35,5.72A29.28,29.28,0,1,1,5.72,35h0A29.28,29.28,0,0,1,35,5.72M35,0A35,35,0,1,0,70,35h0A35,35,0,0,0,35,0Z"/>
    <g id="T" style="isolation: isolate">
      <g style="isolation: isolate">
        <path d="M20.08,20.42h19c9.44,0,11.27,4,11.27,7.54,0,3-1.75,4.93-4.4,5.9a7.48,7.48,0,0,1,6.15,7.61c0,6-4.36,9.14-12.35,9.14H20.08ZM30.6,31.8h5.71c2.39,0,3.73-.14,3.73-2.09C40,28,38.59,28,36.31,28H30.6ZM30.6,43H37c2.69,0,4.29-.19,4.29-2.5,0-1.83-1.34-2.36-3.88-2.36H30.6Z"/>
      </g>
    </g>
  </g>
</svg>
