<svg xmlns="http://www.w3.org/2000/svg" viewBox="0 0 70 70">
  <g id="레이어_2" data-name="레이어 2">
    <g id="레이어_1-2" data-name="레이어 1">
      <g id="그룹_1543" data-name="그룹 1543">
        <g id="그룹_1531" data-name="그룹 1531">
          <path id="패스_2237" data-name="패스 2237" d="M11.33,70H58.67A11.33,11.33,0,0,0,70,58.67V11.33A11.33,11.33,0,0,0,58.67,0H11.33A11.33,11.33,0,0,0,0,11.33V58.67A11.33,11.33,0,0,0,11.33,70Z" fill="#b1e0e0"/>
          <path id="패스_2250" data-name="패스 2250" d="M16.73,55.34H53.27a2.19,2.19,0,0,0,2.19-2.19V27.39a2.19,2.19,0,0,0-2.19-2.18h-4.8a13.47,13.47,0,0,0-26.94,0h-4.8a2.2,2.2,0,0,0-2.19,2.18V53.15A2.2,2.2,0,0,0,16.73,55.34Z" fill="#64a7a7"/>
          <g>
            <circle id="타원_336" data-name="타원 336" cx="35" cy="25.21" r="10.5" transform="translate(-2.8 45.98) rotate(-64.55)" fill="#e8efdf"/>
            <path d="M35,36.21A11,11,0,0,1,32.46,14.5h0a11,11,0,0,1,5.08,21.41A11.19,11.19,0,0,1,35,36.21ZM32.69,15.47h0a10,10,0,1,0,7.56,1.22A10,10,0,0,0,32.69,15.47Z" fill="#b1e0e0"/>
          </g>
          <path id="패스_2251" data-name="패스 2251" d="M34.9,21.26c0-.17.18-.17.2,0,.1,1.14.2,2.28.31,3.42H34.6Z" fill="#487b7b"/>
          <path d="M38.79,21.91a.54.54,0,0,1-.35-.14.51.51,0,0,1,0-.71L39.6,19.9a.5.5,0,0,1,.7,0,.5.5,0,0,1,0,.71l-1.15,1.16A.54.54,0,0,1,38.79,21.91Z" fill="#487b7b"/>
          <path d="M42,25.71H40.37a.5.5,0,0,1-.5-.5.5.5,0,0,1,.5-.5H42a.5.5,0,0,1,.5.5A.51.51,0,0,1,42,25.71Z" fill="#487b7b"/>
          <path d="M40,30.66a.47.47,0,0,1-.35-.15l-1.16-1.16a.5.5,0,0,1,0-.7.5.5,0,0,1,.71,0L40.3,29.8a.5.5,0,0,1,0,.71A.47.47,0,0,1,40,30.66Z" fill="#487b7b"/>
          <path d="M35,32.71a.5.5,0,0,1-.5-.5V30.57a.5.5,0,1,1,1,0v1.64A.5.5,0,0,1,35,32.71Z" fill="#487b7b"/>
          <path d="M30.05,30.66a.47.47,0,0,1-.35-.15.5.5,0,0,1,0-.71l1.15-1.15a.5.5,0,0,1,.71,0,.5.5,0,0,1,0,.7L30.4,30.51A.47.47,0,0,1,30.05,30.66Z" fill="#487b7b"/>
          <path d="M29.63,25.71H28a.5.5,0,0,1-.5-.5.5.5,0,0,1,.5-.5h1.63a.5.5,0,0,1,.5.5A.5.5,0,0,1,29.63,25.71Z" fill="#487b7b"/>
          <path d="M31.2,21.91a.54.54,0,0,1-.35-.14L29.7,20.61a.5.5,0,0,1,0-.71.5.5,0,0,1,.7,0l1.16,1.16a.51.51,0,0,1,0,.71A.54.54,0,0,1,31.2,21.91Z" fill="#487b7b"/>
          <path d="M35,20.34a.5.5,0,0,1-.5-.5V18.21a.5.5,0,0,1,1,0v1.63A.5.5,0,0,1,35,20.34Z" fill="#487b7b"/>
          <path id="타원_337" data-name="타원 337" d="M35,24.29a.92.92,0,1,1-.92.92A.92.92,0,0,1,35,24.29Z" fill="#487b7b"/>
          <path id="패스_2252" data-name="패스 2252" d="M17.52,27.39a.79.79,0,0,0-.79-.79.8.8,0,1,0,.79.79Z" fill="#fff"/>
          <path id="패스_2253" data-name="패스 2253" d="M53.93,27.39a.79.79,0,1,0-.79.8.79.79,0,0,0,.79-.8Z" fill="#fff"/>
          <path id="패스_2254" data-name="패스 2254" d="M17.52,53.33a.79.79,0,0,0-.79-.79.79.79,0,1,0,0,1.58.79.79,0,0,0,.79-.79Z" fill="#fff"/>
          <path id="패스_2255" data-name="패스 2255" d="M53.93,53.33a.79.79,0,1,0-.79.79.79.79,0,0,0,.79-.79Z" fill="#fff"/>
          <path id="사각형_2026" data-name="사각형 2026" d="M23.29,34.48h0a4.08,4.08,0,0,1,4.07,4.07v9.14a4.07,4.07,0,0,1-4.07,4.07h0a4.07,4.07,0,0,1-4.07-4.07V38.55A4.07,4.07,0,0,1,23.29,34.48Z" fill="#487b7b"/>
          <path id="사각형_2027" data-name="사각형 2027" d="M46.71,51.76h0a4.07,4.07,0,0,1-4.07-4.07V38.55a4.07,4.07,0,0,1,4.07-4.07h0a4.07,4.07,0,0,1,4.07,4.07v9.14A4.07,4.07,0,0,1,46.71,51.76Z" fill="#487b7b"/>
        </g>
        <path id="패스_2237-2" data-name="패스 2237-2" d="M11.33,70H58.67A11.33,11.33,0,0,0,70,58.67V11.33A11.33,11.33,0,0,0,58.67,0H11.33A11.33,11.33,0,0,0,0,11.33V58.67A11.33,11.33,0,0,0,11.33,70Z" fill="#b1e0e0"/>
        <path id="패스_2250-2" data-name="패스 2250-2" d="M16.73,55.34H53.27a2.19,2.19,0,0,0,2.19-2.19V27.39a2.19,2.19,0,0,0-2.19-2.18h-4.8a13.47,13.47,0,0,0-26.94,0h-4.8a2.2,2.2,0,0,0-2.19,2.18V53.15A2.2,2.2,0,0,0,16.73,55.34Z" fill="#64a7a7"/>
        <g>
          <circle id="타원_336-2" data-name="타원 336-2" cx="35" cy="25.21" r="10.5" transform="translate(-2.8 45.98) rotate(-64.55)" fill="#e8efdf"/>
          <path d="M35,36.21A11,11,0,0,1,32.46,14.5h0a11,11,0,0,1,5.08,21.41A11.19,11.19,0,0,1,35,36.21ZM32.69,15.47h0a10,10,0,1,0,7.56,1.22A10,10,0,0,0,32.69,15.47Z" fill="#b1e0e0"/>
        </g>
        <path id="패스_2251-2" data-name="패스 2251-2" d="M34.9,21.26c0-.17.18-.17.2,0,.1,1.14.2,2.28.31,3.42H34.6Z" fill="#487b7b"/>
        <path d="M38.79,21.91a.54.54,0,0,1-.35-.14.51.51,0,0,1,0-.71L39.6,19.9a.5.5,0,0,1,.7,0,.5.5,0,0,1,0,.71l-1.15,1.16A.54.54,0,0,1,38.79,21.91Z" fill="#487b7b"/>
        <path d="M42,25.71H40.37a.5.5,0,0,1-.5-.5.5.5,0,0,1,.5-.5H42a.5.5,0,0,1,.5.5A.51.51,0,0,1,42,25.71Z" fill="#487b7b"/>
        <path d="M40,30.66a.47.47,0,0,1-.35-.15l-1.16-1.16a.5.5,0,0,1,0-.7.5.5,0,0,1,.71,0L40.3,29.8a.5.5,0,0,1,0,.71A.47.47,0,0,1,40,30.66Z" fill="#487b7b"/>
        <path d="M35,32.71a.5.5,0,0,1-.5-.5V30.57a.5.5,0,1,1,1,0v1.64A.5.5,0,0,1,35,32.71Z" fill="#487b7b"/>
        <path d="M30.05,30.66a.47.47,0,0,1-.35-.15.5.5,0,0,1,0-.71l1.15-1.15a.5.5,0,0,1,.71,0,.5.5,0,0,1,0,.7L30.4,30.51A.47.47,0,0,1,30.05,30.66Z" fill="#487b7b"/>
        <path d="M29.63,25.71H28a.5.5,0,0,1-.5-.5.5.5,0,0,1,.5-.5h1.63a.5.5,0,0,1,.5.5A.5.5,0,0,1,29.63,25.71Z" fill="#487b7b"/>
        <path d="M31.2,21.91a.54.54,0,0,1-.35-.14L29.7,20.61a.5.5,0,0,1,0-.71.5.5,0,0,1,.7,0l1.16,1.16a.51.51,0,0,1,0,.71A.54.54,0,0,1,31.2,21.91Z" fill="#487b7b"/>
        <path d="M35,20.34a.5.5,0,0,1-.5-.5V18.21a.5.5,0,0,1,1,0v1.63A.5.5,0,0,1,35,20.34Z" fill="#487b7b"/>
        <path id="타원_337-2" data-name="타원 337-2" d="M35,24.29a.92.92,0,1,1-.92.92A.92.92,0,0,1,35,24.29Z" fill="#487b7b"/>
        <path id="패스_2252-2" data-name="패스 2252-2" d="M17.52,27.39a.79.79,0,0,0-.79-.79.8.8,0,1,0,.79.79Z" fill="#fff"/>
        <path id="패스_2253-2" data-name="패스 2253-2" d="M53.93,27.39a.79.79,0,1,0-.79.8.79.79,0,0,0,.79-.8Z" fill="#fff"/>
        <path id="패스_2254-2" data-name="패스 2254-2" d="M17.52,53.33a.79.79,0,0,0-.79-.79.79.79,0,1,0,0,1.58.79.79,0,0,0,.79-.79Z" fill="#fff"/>
        <path id="패스_2255-2" data-name="패스 2255-2" d="M53.93,53.33a.79.79,0,1,0-.79.79.79.79,0,0,0,.79-.79Z" fill="#fff"/>
        <path id="사각형_2026-2" data-name="사각형 2026-2" d="M23.29,34.48h0a4.08,4.08,0,0,1,4.07,4.07v9.14a4.07,4.07,0,0,1-4.07,4.07h0a4.07,4.07,0,0,1-4.07-4.07V38.55A4.07,4.07,0,0,1,23.29,34.48Z" fill="#487b7b"/>
        <path id="사각형_2027-2" data-name="사각형 2027-2" d="M46.71,51.76h0a4.07,4.07,0,0,1-4.07-4.07V38.55a4.07,4.07,0,0,1,4.07-4.07h0a4.07,4.07,0,0,1,4.07,4.07v9.14A4.07,4.07,0,0,1,46.71,51.76Z" fill="#487b7b"/>
        <path d="M19,66.52H14.71A11.23,11.23,0,0,1,3.49,55.3V14.71A11.23,11.23,0,0,1,14.71,3.49H55.3A11.24,11.24,0,0,1,66.52,14.71V55.3A11.23,11.23,0,0,1,55.3,66.52H19Zm-4.28-60a8.23,8.23,0,0,0-8.22,8.22V55.3a8.24,8.24,0,0,0,8,8.22H55.3a8.23,8.23,0,0,0,8.22-8.22V14.71A8.23,8.23,0,0,0,55.3,6.49Z" fill="#97cbcb"/>
      </g>
    </g>
  </g>
</svg>
