<svg xmlns="http://www.w3.org/2000/svg" viewBox="0 0 70 70">
  <g id="레이어_2" data-name="레이어 2">
    <g id="레이어_1-2" data-name="레이어 1">
      <g>
        <g id="그룹_1525" data-name="그룹 1525">
          <g id="그룹_1515" data-name="그룹 1515">
            <path id="패스_2231" data-name="패스 2231" d="M11.33,70H58.67A11.33,11.33,0,0,0,70,58.67V11.33A11.33,11.33,0,0,0,58.67,0H11.33A11.33,11.33,0,0,0,0,11.33V58.67A11.33,11.33,0,0,0,11.33,70Z"/>
            <path id="패스_2232" data-name="패스 2232" d="M22.24,36.53H17.62C17.37,37.62,16.4,38,15.12,38c-1.79,0-2.38-.92-2-2.88l.05-.29C13.63,32.91,14.49,32,16.4,32c1.47,0,2,.67,2,1.58h4.49c.44-3.55-2-4.88-5.76-4.88-4.27,0-7.78,1.68-8.77,6.33-1.09,5.1,1.77,6.3,6.1,6.3C17.93,41.36,21.07,40.44,22.24,36.53Z" fill="#fff"/>
            <path id="패스_2233" data-name="패스 2233" d="M32.1,28.73c-4.27,0-7.78,1.68-8.78,6.33-1.08,5.1,1.78,6.3,6.11,6.3s7.69-1.2,8.78-6.3C39.2,30.41,36.38,28.73,32.1,28.73Zm1.28,6.12-.06.29c-.42,2-1.39,2.88-3.18,2.88s-2.39-.92-2-2.88l.06-.29c.42-1.94,1.28-2.82,3.18-2.82S33.8,32.91,33.38,34.85Z" fill="#fff"/>
            <path id="패스_2234" data-name="패스 2234" d="M45.69,30.24h-.06c0-.38,0-.75,0-1.13H40.8l-2.54,12h5.25l1.32-6.24c.26-1.26.93-2.42,2.29-2.42,1.58,0,1.5,1,1.28,2.14-.47,2.17-.94,4.35-1.4,6.52h5.23c.45-2.1.89-4.21,1.34-6.31.26-1.26.93-2.35,2.29-2.35,1.58,0,1.5,1,1.27,2.14-.46,2.17-.93,4.35-1.39,6.52H61l1.75-8.26c.44-2-.34-4.08-3.85-4.08a8.3,8.3,0,0,0-5.21,1.56,3.41,3.41,0,0,0-3.19-1.56A6.86,6.86,0,0,0,45.69,30.24Z" fill="#fff"/>
            <circle id="타원_335" data-name="타원 335" cx="11.33" cy="10.73" r="4.12" fill="#fff"/>
          </g>
        </g>
        <path id="다각형_2" data-name="다각형 2" d="M38.18,48l-1.49,5.3,5.3-1.5-4.81,2.7L42,57.17l-5.3-1.49,1.5,5.3-2.7-4.81L32.8,61l1.49-5.3L29,57.17l4.81-2.69L29,51.79l5.3,1.49L32.8,48l2.69,4.81Z" fill="#fff"/>
      </g>
    </g>
  </g>
</svg>
