<svg xmlns="http://www.w3.org/2000/svg" viewBox="0 0 70 70">
  <g id="레이어_2" data-name="레이어 2">
    <g id="레이어_1-2" data-name="레이어 1">
      <g id="그룹_1544" data-name="그룹 1544">
        <path id="패스_2236" data-name="패스 2236" d="M11.33,70H58.67A11.33,11.33,0,0,0,70,58.67V11.33A11.33,11.33,0,0,0,58.67,0H11.33A11.33,11.33,0,0,0,0,11.33V58.67A11.33,11.33,0,0,0,11.33,70Z" fill="#fff3bf"/>
        <path id="패스_2256" data-name="패스 2256" d="M44.93,46l12-21.78L51.13,13.72,37.66,38.18A10.15,10.15,0,0,1,44.93,46Z" fill="#067e14"/>
        <path id="패스_2257" data-name="패스 2257" d="M35,39.61A8.34,8.34,0,1,0,43.34,48,8.34,8.34,0,0,0,35,39.61ZM37.94,43a.9.9,0,0,1,1.25-.11h0a6.51,6.51,0,0,1,1.63,2,.89.89,0,0,1-1.57.82,4.89,4.89,0,0,0-1.19-1.48A.89.89,0,0,1,37.94,43Zm-.72,11.11a6.57,6.57,0,0,1-6.63-1.31.89.89,0,0,1-.09-1.25.9.9,0,0,1,1.26-.09l0,0a4.78,4.78,0,0,0,8-2.86.88.88,0,1,1,1.75.26,6.53,6.53,0,0,1-4.27,5.22Z" fill="#ffce00"/>
        <path id="패스_2258" data-name="패스 2258" d="M32.34,38.18,18.86,13.72,13.07,24.23,25.07,46A10.1,10.1,0,0,1,32.34,38.18Z" fill="#067e14"/>
        <g id="그룹_1514" data-name="그룹 1514">
          <path id="패스_2259" data-name="패스 2259" d="M23.5,18.47h23l.39-.71H23.11Z" fill="#067e14"/>
          <path id="패스_2260" data-name="패스 2260" d="M26.47,23.86H43.52l.37-.67H26.1Z" fill="#067e14"/>
          <path id="패스_2261" data-name="패스 2261" d="M25,21.18H45l.39-.71H24.61Z" fill="#067e14"/>
          <path id="패스_2262" data-name="패스 2262" d="M22.75,17.11h24.5l.38-.71H22.37Z" fill="#067e14"/>
          <path id="패스_2263" data-name="패스 2263" d="M24.25,19.83H45.74l.39-.71H23.86Z" fill="#067e14"/>
          <path id="패스_2264" data-name="패스 2264" d="M25.75,22.54h18.5l.39-.71H25.36Z" fill="#067e14"/>
          <path id="패스_2265" data-name="패스 2265" d="M49.11,13.72H20.89l.37.68H48.74Z" fill="#067e14"/>
          <path id="패스_2266" data-name="패스 2266" d="M21.62,15.05l.39.7H48l.39-.7Z" fill="#067e14"/>
        </g>
        <path id="패스_2323" data-name="패스 2323" d="M20.66,29.64s-.37,7.78,5.94,7.78c-6.31,0-5.94,7.79-5.94,7.79h0s.37-7.79-5.94-7.79c6.31,0,5.94-7.78,5.94-7.78" fill="#ffce00"/>
        <path id="패스_2324" data-name="패스 2324" d="M49.29,44.63s-.46,9.57,7.3,9.57c-7.76,0-7.3,9.56-7.3,9.56h0S49.75,54.2,42,54.2c7.76,0,7.29-9.57,7.29-9.57" fill="#ffce00"/>
        <path id="패스_2327" data-name="패스 2327" d="M10.54,12.49S10,24.21,19.48,24.21c-9.5,0-8.94,11.72-8.94,11.72h0s.57-11.72-8.94-11.72c9.51,0,8.94-11.72,8.94-11.72" fill="#ffce00"/>
        <path id="패스_2326" data-name="패스 2326" d="M14.72,49.72s-.27,5.48,4.17,5.48c-4.44,0-4.17,5.47-4.17,5.47h0S15,55.2,10.54,55.2c4.44,0,4.17-5.48,4.17-5.48" fill="#ffce00"/>
        <path id="패스_2330" data-name="패스 2330" d="M58.76,5.74s-.26,5.47,4.18,5.47c-4.44,0-4.18,5.48-4.18,5.48h0s.26-5.48-4.18-5.48c4.44,0,4.18-5.47,4.18-5.47" fill="#ffce00"/>
        <path id="패스_2325" data-name="패스 2325" d="M52.47,21.28S51.81,35,62.94,35C51.81,35,52.47,48.72,52.47,48.72h0S53.12,35,42,35c11.13,0,10.47-13.72,10.47-13.72" fill="#ffce00"/>
      </g>
    </g>
  </g>
</svg>
