<svg xmlns="http://www.w3.org/2000/svg" viewBox="0 0 70 70">
  <g id="레이어_2" data-name="레이어 2">
    <g id="레이어_1-2" data-name="레이어 1">
      <g id="그룹_1541" data-name="그룹 1541">
        <path id="패스_2278" data-name="패스 2278" d="M11.33,70H58.67A11.33,11.33,0,0,0,70,58.67V11.33A11.33,11.33,0,0,0,58.67,0H11.33A11.33,11.33,0,0,0,0,11.33V58.67A11.33,11.33,0,0,0,11.33,70Z" fill="#d7e3f4"/>
        <path id="패스_2277" data-name="패스 2277" d="M58.44,36.69,54.5,25.59l8.43-13.08-13.36,3.2L46.54,32,29.48,35.39,28.07,43l26.28-5.3Z" fill="#a3012d"/>
        <path d="M10.53,59.26l-.18,0a1,1,0,0,1-.8-1.16l6.69-36a1,1,0,1,1,2,.37l-6.68,36A1,1,0,0,1,10.53,59.26Z" fill="#fff"/>
        <path id="패스_2279" data-name="패스 2279" d="M21.61,15.14l-1.9,10.22,13-2.62,1.89-10.2Z" fill="#1d2181"/>
        <path id="패스_2280" data-name="패스 2280" d="M18.82,30.12l31.42-6.33.44-2.38L19.27,27.74Z" fill="#fff"/>
        <path id="패스_2281" data-name="패스 2281" d="M17.94,34.89l31.42-6.33.44-2.38L18.38,32.51Z" fill="#fff"/>
        <path id="패스_2282" data-name="패스 2282" d="M18.38,32.51,49.8,26.18l.44-2.39L18.82,30.12Z" fill="#a3012d"/>
        <path id="패스_2283" data-name="패스 2283" d="M17.49,37.28,48.91,31l.45-2.39L17.94,34.89Z" fill="#a3012d"/>
        <path id="패스_2284" data-name="패스 2284" d="M17.11,39.32,48.53,33l.38-2L17.49,37.28Z" fill="#fff"/>
        <path id="패스_2285" data-name="패스 2285" d="M33.63,17.57l-.48,2.58,18.46-3.72.48-2.58Z" fill="#a3012d"/>
        <path id="패스_2286" data-name="패스 2286" d="M53,8.81,34.56,12.53,34.11,15l18.46-3.73Z" fill="#a3012d"/>
        <path id="패스_2287" data-name="패스 2287" d="M19.27,27.74l31.41-6.33L51.13,19,19.71,25.35Z" fill="#a3012d"/>
        <path id="패스_2288" data-name="패스 2288" d="M52.57,11.27,34.1,15l-.47,2.58,18.46-3.72Z" fill="#fff"/>
        <path id="패스_2289" data-name="패스 2289" d="M32.67,22.74l-13,2.62h0L51.13,19h0l.48-2.58L33.15,20.16Z" fill="#fff"/>
        <g id="그룹_1538" data-name="그룹 1538">
          <path id="패스_2290" data-name="패스 2290" d="M23.43,16.3l.06.43.5-.11-.47.37.06.44-.34-.2-.47.37.25-.49-.34-.2.5-.11Z" fill="#fff"/>
          <path id="패스_2291" data-name="패스 2291" d="M25.13,15.92l.05.43.5-.11-.46.38.06.43-.35-.2-.47.38.26-.5-.35-.2.5-.11Z" fill="#fff"/>
          <path id="패스_2292" data-name="패스 2292" d="M26.81,15.55l.06.43.5-.11-.46.37.05.44-.34-.2-.47.37.26-.5-.35-.19.5-.11Z" fill="#fff"/>
          <path id="패스_2293" data-name="패스 2293" d="M28.51,15.17l.06.43.5-.11-.46.38.05.43-.34-.2-.47.38.25-.5-.34-.2.5-.11Z" fill="#fff"/>
          <path id="패스_2294" data-name="패스 2294" d="M30.21,14.8l.05.43.51-.11-.47.38.06.43-.35-.2-.46.38.25-.5-.35-.2.5-.11Z" fill="#fff"/>
          <path id="패스_2295" data-name="패스 2295" d="M31.9,14.42l.06.43.5-.11-.47.38.06.43-.35-.2-.46.38.25-.5-.35-.2.51-.11Z" fill="#fff"/>
          <path id="패스_2296" data-name="패스 2296" d="M24,17.33l.06.43.5-.11L24.1,18l0,.43-.34-.2-.47.38.25-.5-.34-.2.5-.11Z" fill="#fff"/>
          <path id="패스_2297" data-name="패스 2297" d="M25.7,17l.05.43.51-.11-.47.37.06.44-.35-.2-.46.37.25-.49-.35-.2.5-.11Z" fill="#fff"/>
          <path id="패스_2298" data-name="패스 2298" d="M27.39,16.58l.06.43.5-.11-.47.38.06.43-.34-.2-.47.38.25-.5-.34-.2.5-.11Z" fill="#fff"/>
          <path id="패스_2299" data-name="패스 2299" d="M29.09,16.21l.05.43.51-.11-.47.37.06.44-.35-.2-.47.37.26-.5-.35-.19.5-.11Z" fill="#fff"/>
          <path id="패스_2300" data-name="패스 2300" d="M30.78,15.83l.06.43.5-.11-.47.38.06.43-.34-.2-.47.38.25-.5-.34-.2.5-.11Z" fill="#fff"/>
          <path id="패스_2301" data-name="패스 2301" d="M22.92,18.74l.06.43.5-.11-.47.37.06.43-.34-.19-.47.37.25-.5-.34-.19.5-.12Z" fill="#fff"/>
          <path id="패스_2302" data-name="패스 2302" d="M24.62,18.36l.05.43.5-.11-.46.38.06.43-.35-.2-.47.38.26-.5-.35-.2.5-.11Z" fill="#fff"/>
          <path id="패스_2303" data-name="패스 2303" d="M26.31,18l.06.43.5-.11-.47.38.06.43-.35-.2-.46.38.25-.5-.34-.2.5-.11Z" fill="#fff"/>
          <path id="패스_2304" data-name="패스 2304" d="M28,17.61l.06.43.5-.11-.46.38,0,.43-.34-.2-.47.38.26-.5-.35-.2.5-.11Z" fill="#fff"/>
          <path id="패스_2305" data-name="패스 2305" d="M29.7,17.23l.06.43.5-.11-.47.38.06.43-.35-.2-.46.38.25-.5-.35-.2.51-.11Z" fill="#fff"/>
          <path id="패스_2306" data-name="패스 2306" d="M31.39,16.86l.06.43.5-.11-.47.37.06.44-.34-.2-.47.38.25-.5-.34-.2.5-.11Z" fill="#fff"/>
          <path id="패스_2307" data-name="패스 2307" d="M23.49,19.77l.06.43.5-.11-.46.37.05.44-.34-.2-.47.37.25-.5-.34-.19.5-.11Z" fill="#fff"/>
          <path id="패스_2308" data-name="패스 2308" d="M25.18,19.39l.06.43.5-.11-.46.38,0,.43-.34-.2-.47.38.25-.5-.34-.2.5-.11Z" fill="#fff"/>
          <path id="패스_2309" data-name="패스 2309" d="M26.88,19l.06.43.5-.11-.46.37.05.43L26.69,20l-.47.37.25-.5-.34-.19.5-.11Z" fill="#fff"/>
          <path id="패스_2310" data-name="패스 2310" d="M28.58,18.64l.05.43.51-.11-.47.38.06.43-.35-.2-.46.38.25-.5-.35-.2.5-.11Z" fill="#fff"/>
          <path id="패스_2311" data-name="패스 2311" d="M30.27,18.27l.06.43.5-.11-.47.38.06.43-.35-.2-.46.38.25-.5-.35-.2.51-.11Z" fill="#fff"/>
          <path id="패스_2312" data-name="패스 2312" d="M22.41,21.17l.06.43.5-.11-.46.37,0,.44-.34-.2-.47.38L22,22l-.34-.2.5-.11Z" fill="#fff"/>
          <path id="패스_2313" data-name="패스 2313" d="M24.11,20.79l.05.43.51-.11-.47.38.06.43-.35-.2-.46.38.25-.5-.35-.2.5-.11Z" fill="#fff"/>
          <path id="패스_2314" data-name="패스 2314" d="M25.8,20.42l.06.43.5-.11-.47.38.06.43-.34-.2-.47.38.25-.5-.34-.2.5-.11Z" fill="#fff"/>
          <path id="패스_2315" data-name="패스 2315" d="M27.49,20l.06.43.5-.11-.46.38.06.43L27.3,21l-.47.38.26-.5-.35-.2.5-.11Z" fill="#fff"/>
          <path id="패스_2316" data-name="패스 2316" d="M29.19,19.67l.06.43.5-.11-.47.38.06.43L29,20.6l-.46.38.25-.5-.35-.2.51-.11Z" fill="#fff"/>
          <path id="패스_2317" data-name="패스 2317" d="M30.88,19.29l.06.43.5-.11L31,20l.05.43-.34-.2-.47.38.25-.5-.34-.2.5-.11Z" fill="#fff"/>
          <path id="패스_2318" data-name="패스 2318" d="M23,22.2l.06.43.5-.11-.46.38.06.43-.35-.2-.47.38.26-.5-.35-.2.5-.11Z" fill="#fff"/>
          <path id="패스_2319" data-name="패스 2319" d="M24.68,21.83l.06.43.5-.11-.47.37.06.44-.35-.2-.46.37.25-.49-.34-.2.5-.11Z" fill="#fff"/>
          <path id="패스_2320" data-name="패스 2320" d="M26.37,21.45l.06.43.5-.11-.46.38.05.43-.34-.2-.47.38.25-.5-.34-.2.5-.11Z" fill="#fff"/>
          <path id="패스_2321" data-name="패스 2321" d="M28.07,21.08l.05.43.51-.11-.47.37.06.44-.35-.2-.46.37.25-.49-.35-.2.5-.11Z" fill="#fff"/>
          <path id="패스_2322" data-name="패스 2322" d="M29.76,20.7l.06.43.5-.11-.47.38.06.43-.34-.2L29.1,22l.25-.5-.34-.2.5-.11Z" fill="#fff"/>
        </g>
      </g>
    </g>
  </g>
</svg>
