<svg xmlns="http://www.w3.org/2000/svg" viewBox="0 0 70 70">
  <g id="레이어_2" data-name="레이어 2">
    <g id="레이어_1-2" data-name="레이어 1">
      <g id="그룹_1548" data-name="그룹 1548">
        <g id="그룹_1542" data-name="그룹 1542">
          <path id="패스_2235-2" data-name="패스 2235-2" d="M11.33,70H58.67A11.33,11.33,0,0,0,70,58.67V11.33A11.33,11.33,0,0,0,58.67,0H11.33A11.33,11.33,0,0,0,0,11.33V58.67A11.33,11.33,0,0,0,11.33,70Z" fill="#d3ab7c"/>
          <path id="패스_2267" data-name="패스 2267" d="M20.89,49H19v2.62H31.65V49H29.78v-8H40.21v8H38.34v2.62H51V49H49.09V21H51V18.35H38.34V21h1.87v8H29.78V21h1.87V18.35H19V21h1.87Z" fill="#6f5600"/>
        </g>
      </g>
    </g>
  </g>
</svg>
