<svg id="레이어_1" data-name="레이어 1" xmlns="http://www.w3.org/2000/svg" viewBox="0 0 70 70">
  <g>
    <g id="그룹_1436" data-name="그룹 1436">
      <rect id="사각형_1963" data-name="사각형 1963" x="31.32" y="31.35" width="7.37" height="7.37" transform="translate(-14.52 35.01) rotate(-45)" fill="#a0a0a0"/>
      <path id="빼기_14" data-name="빼기 14" d="M23.86,54.27h0l.68-6.22L18.39,44.5V37.64l-5.62-2.55,5.62-2.54V25.32l6-3.49-.53-6.06,5,3.52h0L35,15.73l6.1,3.52,5-3.5-.55,6.05,6.1,3.52v7.1L57.23,35l-5.62,2.55v7L45.51,48l.66,6.24L41.1,50.56,35,54.08l-6-3.49-5.09,3.68ZM35,22.93h0l-10.37,6v12l10.37,6,10.37-6v-12l-3-1.72L35,22.93Z" fill="#a0a0a0"/>
    </g>
    <rect width="70" height="70" fill="none"/>
  </g>
</svg>
