<svg xmlns="http://www.w3.org/2000/svg" width="299.091" height="43.735" viewBox="0 0 299.091 43.735">
  <g id="그룹_788" data-name="그룹 788" transform="translate(-239.999 -915.999)">
    <path id="패스_646" data-name="패스 646" d="M332.491,946.085l3.9,21.8,2.255-21.8H351.09l-7.915,43.735H331.652l-3.371-20.839-3.371,20.839H313.388l-7.915-43.735h12.439l2.255,21.8,3.9-21.8Z" transform="translate(-32.443 -30.086)" fill="#fff"/>
    <path id="패스_647" data-name="패스 647" d="M269.621,970.67l-5.812-8.3H249.235v-5.518h20.386v-5.789l-3.485-4.978H245.022l-5.812,8.3v10.078l5.331,7.613H259.6V977.6H239.21v4.612l5.331,7.613h20.221l4.859-6.939Z" transform="translate(0.789 -30.086)" fill="#fff"/>
    <path id="패스_648" data-name="패스 648" d="M434.736,977.6V989.82H404.325V946.085h30.411v10.766H416.55v5.518h18.186v9.708H416.55V977.6Z" transform="translate(-82.018 -30.086)" fill="#fff"/>
    <path id="패스_649" data-name="패스 649" d="M496.762,946.085H482.048l-9.224,43.735H483.59l1.34-6.373h8.95l1.34,6.373h10.766Zm-9.828,27.836,2.471-16.233,2.471,16.233Z" transform="translate(-116.372 -30.086)" fill="#fff"/>
    <path id="패스_650" data-name="패스 650" d="M552.935,956.852h11.2V946.085H530.971v10.766h11.2V989.82h10.766Z" transform="translate(-145.533 -30.086)" fill="#fff"/>
    <path id="패스_651" data-name="패스 651" d="M724.082,946.085H704.425l-6.753,9.644v24.447l6.753,9.644h19.657l6.753-9.644V955.729Zm-6.808,32.629h-6.041V957.389h6.041Z" transform="translate(-229.136 -30.086)" fill="#fff"/>
    <path id="패스_652" data-name="패스 652" d="M805.846,946.085H792.792l-3.527,6.888-3.527-6.888H772.683l11.2,21.868-11.2,21.867h13.054l3.527-6.888,3.527,6.888h13.054l-11.2-21.867Z" transform="translate(-266.755 -30.086)" fill="#fff"/>
    <path id="패스_653" data-name="패스 653" d="M649.2,966.287l3.485-4.977v-8.993l-4.358-6.225-25.664-.006V989.82h26.945l3.951-5.641V972.511Zm-15.025-10.794h4.939v7.381h-4.939ZM640.3,980.91h-6.126v-9.144H640.3Zm7.048-12.727v0Z" transform="translate(-191.517 -30.086)" fill="#fff"/>
    <line id="선_76" data-name="선 76" x2="5.812" y2="8.301" transform="translate(264.598 933.945)" fill="#fff"/>
  </g>
</svg>
